<svg id="Layer_1" data-name="Layer 1" xmlns="http://www.w3.org/2000/svg" width="3.32cm" height="3.32cm" viewBox="0 0 94 94"><title>matawai_fositen</title><circle cx="47" cy="47" r="45.5" fill="#646565" stroke="#fff" stroke-miterlimit="10" stroke-width="3"/><path d="M19.54,40.61s-13.29,10.82,18.62,18c31.3,7,50.07-11.52,41.13-18.1,0,0,6.63,2.65,4,9.07-1.58,3.91-4.62,5.37-4.49,8,.33,6.61-5.49,25.46-30.67,24.94s-28.7-17.91-28.7-21-3.15-8.69-5-11.76.94-8.54,5.11-9.1" transform="translate(-3 -3.5)" fill="#fff"/><path d="M40.54,34.88s-15.3,1.9-19.17,9.28C17.6,51.33,39.62,54.74,47.49,55.62c10.9,1.21,28-1.34,29.7-10.92,1.44-8-27.39-11.05-36.65-9.82" transform="translate(-3 -3.5)" fill="#fff"/><path d="M31.84,56.51S22.12,69.24,43,71.34c21.92,2.21,15.66-12.71,15.66-12.71l-6.08.71s3.07,7.25-8.58,6c-13.34-1.39-6.53-7.53-6.53-7.53Z" transform="translate(-3 -3.5)" fill="#646565"/><path d="M17.27,43.69s-15.55-3-2.81-10.31c11.78-6.73,16-5,20.12.27a50.23,50.23,0,0,0-5,1.43s-1.74-5-12,.36c0,0-5.53,3.76,2.61,4.58a14.2,14.2,0,0,0-2.89,3.67" transform="translate(-3 -3.5)" fill="#fff"/><path d="M81.43,43.68S98.92,39.6,85.81,33C72,26.09,68.56,29.31,64.3,33.76A25.66,25.66,0,0,1,69.17,35s3.48-4.13,11.81.49c0,0,5.84,2.49-1.69,5a4.43,4.43,0,0,1,2.14,3.2" transform="translate(-3 -3.5)" fill="#fff"/></svg>