<?xml version="1.0" encoding="utf-8"?>
<!-- Generator: Adobe Illustrator 23.0.2, SVG Export Plug-In . SVG Version: 6.00 Build 0)  -->
<svg version="1.1" id="Layer_1" xmlns="http://www.w3.org/2000/svg" xmlns:xlink="http://www.w3.org/1999/xlink" x="0px" y="0px"
	 width="100px" height="100px" viewBox="0 0 100 100" style="enable-background:new 0 0 100 100;" xml:space="preserve">
<style type="text/css">
	.st0{fill:#333333;}
</style>
<polygon class="st0" points="66,27.9 92.1,54.6 79.9,55.4 80,53.3 61.5,33.8 "/>
<polygon class="st0" points="62.4,25.6 28.2,37.2 8,58 33.2,59.8 "/>
<polygon class="st0" points="75.8,55 58.3,37.1 39.7,58.6 39.8,71 52.2,69.5 52,49.1 64.4,48.1 64.7,68.5 75.8,66.9 "/>
<polygon class="st0" points="33.2,64.1 35.8,61.1 35.8,71.5 11.8,66.3 11.9,62.1 "/>
<rect x="42.7" y="32" transform="matrix(0.6461 -0.7633 0.7633 0.6461 -4.9683 54.171)" class="st0" width="26.5" height="0.9"/>
<rect x="33" y="35.1" transform="matrix(0.6461 -0.7633 0.7633 0.6461 -10.7522 47.9029)" class="st0" width="26.5" height="0.9"/>
<rect x="20.8" y="39.9" transform="matrix(0.6468 -0.7627 0.7627 0.6468 -18.7407 40.1621)" class="st0" width="26.5" height="0.9"/>
<rect x="11.3" y="41.9" transform="matrix(0.6464 -0.763 0.763 0.6464 -23.6214 33.7213)" class="st0" width="26.5" height="0.9"/>
<rect x="29.9" y="31" transform="matrix(0.6296 -0.7769 0.7769 0.6296 -17.9147 37.4644)" class="st0" width="0.9" height="13"/>
<rect x="40.4" y="28.5" transform="matrix(0.6299 -0.7767 0.7767 0.6299 -12.0058 44.7107)" class="st0" width="0.9" height="13"/>
<rect x="50.6" y="24.4" transform="matrix(0.6305 -0.7762 0.7762 0.6305 -4.3685 50.701)" class="st0" width="0.9" height="11.1"/>
<rect x="59.8" y="22.9" transform="matrix(0.7514 -0.6599 0.6599 0.7514 -1.9034 46.1044)" class="st0" width="0.9" height="5.4"/>
</svg>
