<svg id="Layer_1" data-name="Layer 1" xmlns="http://www.w3.org/2000/svg" width="3.32cm" height="3.32cm" viewBox="0 0 94 94"><title>matawai_village</title><circle cx="47" cy="47" r="45.5" fill="#f15c3b" stroke="#fff" stroke-miterlimit="10" stroke-width="3"/><polygon points="63.02 24.4 89.12 51.14 76.9 51.89 76.96 49.84 58.45 30.31 63.02 24.4" fill="#fff"/><polygon points="59.35 22.07 25.19 33.68 4.99 54.55 30.24 56.27 59.35 22.07" fill="#fff"/><polygon points="72.82 51.51 55.33 33.58 36.7 55.13 36.76 67.53 49.17 65.95 48.98 45.58 61.44 44.63 61.65 65.03 72.79 63.44 72.82 51.51" fill="#fff"/><polygon points="30.2 60.59 32.83 57.62 32.83 68.04 8.81 62.83 8.9 58.62 30.2 60.59" fill="#fff"/><rect x="42.7" y="31.98" width="26.46" height="0.92" transform="translate(-7.97 50.67) rotate(-49.75)" fill="#fff"/><rect x="33.05" y="35.09" width="26.46" height="0.92" transform="translate(-13.75 44.4) rotate(-49.75)" fill="#fff"/><rect x="20.76" y="39.85" width="26.46" height="0.92" transform="translate(-21.74 36.66) rotate(-49.7)" fill="#fff"/><rect x="11.34" y="41.89" width="26.46" height="0.92" transform="translate(-26.62 30.22) rotate(-49.73)" fill="#fff"/><rect x="29.87" y="31.03" width="0.92" height="12.98" transform="translate(-20.91 33.96) rotate(-50.98)" fill="#fff"/><rect x="40.45" y="28.46" width="0.92" height="12.98" transform="translate(-15.01 41.21) rotate(-50.96)" fill="#fff"/><rect x="50.61" y="24.38" width="0.92" height="11.11" transform="translate(-7.37 47.2) rotate(-50.91)" fill="#fff"/><rect x="59.78" y="22.89" width="0.92" height="5.38" transform="translate(-4.9 42.6) rotate(-41.29)" fill="#fff"/></svg>