<?xml version="1.0" encoding="utf-8"?>
<!-- Generator: Adobe Illustrator 22.1.0, SVG Export Plug-In . SVG Version: 6.00 Build 0)  -->
<svg version="1.1" id="Layer_1" xmlns="http://www.w3.org/2000/svg" xmlns:xlink="http://www.w3.org/1999/xlink" x="0px" y="0px"
	 viewBox="0 0 92.2 80.8" style="enable-background:new 0 0 92.2 80.8;" xml:space="preserve">
<style type="text/css">
	.st0{fill:#D97B29;}
	.st1{fill:#09697E;}
	.st2{fill:#33AA8B;}
	.st3{fill:#DEA826;}
</style>
<g>
	<path class="st0" d="M32.9,17.6c1.1,0.4,2.2,0.9,3.3,1.4c0.2,0,0.7,0.3,0.9,0.4c0.4,0.2,0.7,0.4,1.1,0.5c0.5,0.3,1.2,0.5,1.6,0.9
		c0.9,1.1,1.7,2.2,2.6,3.2c1.8,2.1,3.8,4.1,5.9,5.8c3.3,2.7,7.6,4.9,12,3.9c1.6-0.5,3.3-0.8,4.9-1c1.4-0.1,3.1-0.2,4.5,0.1
		c0.7,0.2,1.5,0.6,2.2,0.9c0.3,0.2,0.7,0.3,1,0.4c1.2,0.5,2.5,0.7,3.6,1.4c1.2,0.7,2.3,1.6,3.3,2.4c2.4-5.4,7.2-5.8,12.3-6.4
		c-0.2-3.5-0.8-6.8-0.9-10.3c-0.1-4.4,0.5-9.1-1.1-13.3C88.2,3.6,81.7,0,76.8,0C68.2,0,59.6,0,51,0c-5.3,0-10,1.3-15.4,1
		c-6.7-0.4-13.4-1-20.2-1C7.7,0,0,7.7,0,15.4c0,4.8,0.1,9.5,0.5,14.3c0,0.1,0,0.2,0,0.3c5.2-2.1,9.5-6.2,13.7-9.9
		c0.5-0.5,1.1-1.1,1.7-1.4c0.8-0.3,1.6-0.5,2.5-0.7c3.1-0.6,6.2-1.2,9.3-1.2c1.7,0,3.5,0.2,5.1,0.7C32.8,17.6,32.9,17.6,32.9,17.6z"
		/>
	<path class="st1" d="M58.2,53.9c-7.7-7.7-19.7,0-23.2-7.7c-3.5-7,10.6-5.6,16.2-9.8c1-1,1.4-2.3,1.5-3.5c-1.9-0.9-3.8-2.2-5.6-3.8
		c-1.1-1-2.1-2.1-3.2-3.1c-1-0.9-1.1-2.6-1.7-3.7c-0.4-0.7-0.8-1.3-0.9-2.1c0-0.2,0-0.4-0.1-0.6c-0.1-0.2-0.4-0.2-0.5,0
		c-0.1-0.6,0-1.2,0-1.8c-0.5,0.3-1.2,0.1-1.7-0.3c-0.5-0.3-0.9-0.8-1.4-1.1c-0.2-0.1-0.5-0.3-0.6-0.5c-0.1-0.2-0.1-0.4-0.3-0.6
		c-0.1-0.1-0.2-0.2-0.3-0.2c-0.3-0.2-0.6-0.5-0.8-0.9c0.1,0.1-0.7,0-0.7,0c-0.5-0.2-0.9-0.7-1.2-1.1c-0.5-0.5-0.9-0.9-1.5-1.3
		c-0.7-0.4-1.3-0.9-2-1.3c-0.1,0-0.1-0.1-0.2-0.1c-0.4-0.1-0.6,0.6-0.9,0.5c-0.1,0-0.1-0.1-0.2-0.1c-0.4-0.2-0.8-0.1-1.2,0
		s-0.7,0.5-1.1,0.6c-0.5,0.2-1.1,0.1-1.6,0.3c-0.6,0.2-1,0.8-1.5,1.2c-0.2-0.2-0.6-0.3-0.9-0.3c-0.4,0.7-1.2,1.2-2,1.2
		c0.1,0.1,0.1,0.4-0.1,0.5c-0.1,0.1-0.3,0.2-0.4,0.3c-0.4,0.3-0.7,0.7-0.9,1.2c-0.3,0.5-0.7,0.7-1.1,1.1c-0.9,0.8-1.8,1.6-2.7,2.3
		c-1.8,1.6-3.5,3.1-5.3,4.7c-2.9,2.4-6,4.9-9.5,6.3c0.1,1.1,0.2,2.2,0.1,3.2C0.3,37.6,0,41.8,0,46.1c0,5.7,4,11,8.9,13.6
		c1.8,1,4.5,1.1,5.8,2.8c1.5,1.9,0.6,5.1,0.6,7.3c0,2.8-0.8,6.3,0.3,8.9c2.3,5.6,7.6-2.2,9.8-4.4c3.9-3.9,7.3-9,12.3-11.6
		c0.3-0.2,0.6-0.3,1-0.4c4.2-1.7,9.5-0.9,13.9-0.9c3.8,0,7.4-0.5,11.1-0.8c3-0.2,5.9-0.3,9,0.2c1.2,0.2,2.4,0.3,3.7,0.2
		c0.9,0,1.8-0.2,2.8-0.3c-0.1-0.4-0.3-0.9-0.5-1.3C74.4,51,62.4,58.1,58.2,53.9z"/>
	<path class="st2" d="M85,49.6c-4.2-3.5-10.6,0.7-15.5-0.7c-7-2.8-13.4-3.5-21.1-3.5c-1.4-0.7-3.5-2.1-2.8-3.5
		c3.1-2.5,9-3.9,9.8-8.1c-0.5-0.1-1-0.3-1.5-0.5c-0.4-0.2-0.8-0.3-1.2-0.5c-0.1,1.2-0.4,2.4-1.5,3.5c-5.6,4.2-19.7,2.8-16.2,9.8
		c3.5,7.7,15.5,0,23.2,7.7c4.2,4.2,16.2-2.8,20.4,5.6c0.2,0.4,0.4,0.9,0.5,1.3c3.4-0.7,6.6-2.3,9-4.7C87.9,53.5,87.1,51.2,85,49.6z"
		/>
	<path class="st1" d="M92.1,31.8c-2.2,0.3-4.5,0.5-6.6,1.2c-1,0.3-1.9,0.8-2.8,1.4c-0.4,0.3-0.7,0.5-1.2,0.6
		c-0.5,0.1-0.9,0.1-1.4,0.3c-0.6,0.2-1.1,0.8-1.7,0.8c-0.3,0-0.5-0.2-0.8-0.2c-0.3,0-0.5,0-0.8,0c-0.7-0.1-0.8-1.1-1.4-1.4
		c-0.5-0.3-1.2-0.1-1.8-0.1c-0.4,0-0.9-0.2-1.3-0.4c-1.1-0.5-2.2-0.9-3.3-1.4c-0.7-0.3-1.4-0.6-2.1-0.4c-0.2,0-0.4,0.1-0.7,0.1
		c-0.4,0-0.6-0.3-0.9-0.5c-0.3-0.2-0.8-0.3-1,0c-0.2-0.2-0.4-0.4-0.6-0.6c-0.2,0.2-0.4,0.4-0.6,0.6c-0.2-0.5-0.8-0.9-1.4-0.8
		c-0.2,0.4-0.5,0.7-0.9,0.9c0,0.4-0.2,0.8-0.5,1.1c-0.2,0.1-0.3,0.4-0.1,0.5c-0.8,0.2-1.6,0.4-2.4,0.6c-0.8,0.2-1.9-0.1-2.7-0.3
		c-0.8,4.2-6.7,5.6-9.8,8.1c-0.7,1.4,1.4,2.8,2.8,3.5c7.7,0,14.1,0.7,21.1,3.5c4.9,1.4,11.3-2.8,15.5,0.7c2.1,1.6,2.9,3.9,3.2,6.4
		c2.5-2.5,4.1-5.9,4.1-10c0-3.9,0-7.8,0-11.7C92.2,33.6,92.2,32.7,92.1,31.8z"/>
	<circle class="st3" cx="68.8" cy="16.6" r="6.3"/>
</g>
</svg>
