<?xml version="1.0" encoding="utf-8"?>
<!-- Generator: Adobe Illustrator 22.1.0, SVG Export Plug-In . SVG Version: 6.00 Build 0)  -->
<svg version="1.1" id="Layer_1" xmlns="http://www.w3.org/2000/svg" xmlns:xlink="http://www.w3.org/1999/xlink" x="0px" y="0px"
	 viewBox="0 0 462.3 80.8" style="enable-background:new 0 0 462.3 80.8;" xml:space="preserve">
<style type="text/css">
	.st0{fill:#09697E;}
	.st1{fill:#33AA8B;}
	.st2{fill:#DEA826;}
	.st3{fill:#EF502E;}
	.st4{fill:#D97B29;}
</style>
<g>
	<path class="st0" d="M20,2.1C11.4,2.2,5.7,2.3,3,2.3L1.2,2.5C0.4,2.5,0,3.8,0,6.4v0.2c0,1.3,1.1,2,3.2,2c4.9-0.3,8-0.4,9.3-0.4
		c0.4,0,1.7,0.1,3.8,0.4c0.4,0,0.9,5.4,1.4,16.1c-0.1,2.6-0.2,5-0.2,6.9v30.7c0,2-0.1,5.1-0.2,9.3c0,0.8,1.1,1.2,3.2,1.2
		c2.7,0,4.3-0.3,4.8-0.8c0-4.8-0.1-11-0.2-18.6c0-1.6,0.1-6.8,0.2-15.7C25,31.5,25,26.6,25,23.3c0.5-8.6,0.8-13.4,0.8-14.5
		c1-0.3,2.4-0.5,4.4-0.6c5.3,0.3,8.6,0.4,9.7,0.4c2,0,3-0.6,3-1.8V6.3c0-1.7-0.2-3-0.6-3.8C31.6,2.2,24.2,2.1,20,2.1z"/>
	<path class="st1" d="M10.7,24.1c-0.7,0-1.5,0.1-2.4,0.4c-0.6-0.4-1.1-0.6-1.6-0.6c-1.3,0.4-2,1.1-2,2.2c0,1.3,0.9,2.1,2.8,2.6
		c2.1-0.1,3.2-0.3,3.2-0.4c0.2,0.1,0.5,0.2,0.8,0.2h0.2c1.3-0.2,2-0.8,2-1.8v-0.6C13.7,24.8,12.7,24.1,10.7,24.1z"/>
	<path class="st2" d="M29.9,9h-1c-0.5,0.2-0.8,0.6-1,1.2c-0.3,13-0.4,21.8-0.4,26.6c0,3.2,0.2,11,0.6,23.4c0,0.6-0.1,2.1-0.2,4.6
		c0.1,1.9,0.2,4.2,0.2,6.7c0,0.9,0.5,1.4,1.4,1.4h0.4c0.7-0.5,1-0.8,1-1V61c0-3.9-0.2-12-0.6-24.4c0-4.2,0.2-13.1,0.6-26.6L29.9,9z"
		/>
	<path class="st1" d="M10.9,17.6h-0.6c-0.9,0-1.7,0.1-2.2,0.4c0-0.1-0.3-0.3-1-0.6c-1.7,0.2-2.6,1-2.6,2.2c0,1.2,1.1,2.1,3.2,2.6
		c0.2,0,1.1-0.1,2.8-0.4l1.2,0.2c0.8,0,1.5-0.6,2-1.8C13.7,18.4,12.8,17.6,10.9,17.6z"/>
	<path class="st1" d="M11.3,11.6h-1l-2.4,0.2c0-0.2-0.3-0.4-1-0.4c-1.1,0-1.8,0.7-2.2,2c0,1.3,0.9,2.2,2.6,2.6h0.6
		c0.8,0,1.8-0.1,3.2-0.2c0.2,0.1,0.5,0.2,0.8,0.2c1.3-0.6,2-1.2,2-2C13.9,12.6,13,11.8,11.3,11.6z"/>
	<path class="st0" d="M78.6,66.1c-3.1,0.4-6.7,0.6-10.9,0.6h-4.6c-1.3,0-2.6-0.1-4-0.4c-1.1,0-1.8-3.8-2.2-11.5L57.7,34l0.2-0.4
		c2.4,0,6.7-0.3,13.1-0.8c2,0,3-1.3,3-4c0-1.8-0.5-2.8-1.6-2.8H72c-1.2,0-4.9,0.3-10.9,0.8l-3.8-0.4c-0.3-3-0.4-6.7-0.4-11.1v-4.2
		c0-0.7,0.1-1.3,0.2-1.8c0-1.5,2.2-2.2,6.5-2.2c6.9,0.4,11.2,0.6,12.7,0.6c2.4,0,3.6-0.7,3.6-2c0-0.6-0.1-1.7-0.4-3.4
		c0-0.7-1.3-1-3.8-1H69c-1.5,0-3.8,0.1-7.1,0.4c-1.3,0-4.8-0.1-10.3-0.2c-1.2,0-1.8,2-1.8,5.9c0,2.3,0.1,10.4,0.2,24.2
		c0,2.6-0.1,6.1-0.2,10.5c0.1,3.2,0.2,6.4,0.2,9.7c0,2.2-0.1,5.9-0.2,11.1c0.1,4.4,0.4,7.3,0.8,8.7c0,0.7,1.5,1,4.4,1h23
		c1.4,0,2.1-1.4,2.4-4.2v-0.2C80.3,66.9,79.8,66.1,78.6,66.1z"/>
	<path class="st0" d="M112.6,31.6v-0.4c1.9,0,3.1-4.4,3.8-13.1c0-4.1-0.8-7.6-2.4-10.3c-3.3-4.1-10.4-6.1-21.4-6.1
		c-1.1,0-3,0.1-5.7,0.4c-0.8,0-1.2,2-1.2,5.9v10.7c0,1.9,0.1,3.3,0.2,4.2c-0.1,1.1-0.2,2.6-0.2,4.4V34c0,6.9-0.3,19.6-0.8,38.1
		c0,0.5,0.4,0.8,1.2,0.8h2.4c2,0,3.4-0.2,4-0.6c0-0.1-0.1-0.3-0.2-0.6c0-2.9-0.1-9.3-0.4-19c0.1-7.7,0.4-13,0.8-16.1
		c0.6-1.5,2.5-2.2,5.6-2.2c3.6,0,6.9,1.4,10.1,4.2c2,1.9,3,11.2,3,28v2.6c0,0.7-0.1,1.8-0.2,3.4l0.4,0.2h6.9c0.3,0,0.4-0.1,0.4-0.4
		v-4.6c0-10.7-0.8-20.1-2.4-28.2C116.4,36.4,115.1,33.7,112.6,31.6z M110,18.7c0,1.6-0.2,2.9-0.6,4.2c0,2.4-2.5,3.6-7.5,3.6
		c-3.4-0.1-6.3-0.4-8.7-0.8c-0.4-5.8-0.6-10.2-0.6-13.1V10l6.3-0.4c2.7,0.1,4.9,0.4,6.5,0.8c3,0.9,4.6,3.4,4.6,7.5V18.7z"/>
	<path class="st0" d="M151.5,31.6v-0.4c1.9,0,3.1-4.4,3.8-13.1c0-4.1-0.8-7.6-2.4-10.3c-3.3-4.1-10.4-6.1-21.4-6.1
		c-1.1,0-3,0.1-5.7,0.4c-0.8,0-1.2,2-1.2,5.9v10.7c0,1.9,0.1,3.3,0.2,4.2c-0.1,1.1-0.2,2.6-0.2,4.4V34c0,6.9-0.3,19.6-0.8,38.1
		c0,0.5,0.4,0.8,1.2,0.8h2.4c2,0,3.4-0.2,4-0.6c0-0.1-0.1-0.3-0.2-0.6c0-2.9-0.1-9.3-0.4-19c0.1-7.7,0.4-13,0.8-16.1
		c0.6-1.5,2.5-2.2,5.6-2.2c3.6,0,6.9,1.4,10.1,4.2c2,1.9,3,11.2,3,28v2.6c0,0.7-0.1,1.8-0.2,3.4l0.4,0.2h6.9c0.3,0,0.4-0.1,0.4-0.4
		v-4.6c0-10.7-0.8-20.1-2.4-28.2C155.3,36.4,154,33.7,151.5,31.6z M149,18.7c0,1.6-0.2,2.9-0.6,4.2c0,2.4-2.5,3.6-7.5,3.6
		c-3.4-0.1-6.3-0.4-8.7-0.8c-0.4-5.8-0.6-10.2-0.6-13.1V10l6.3-0.4c2.7,0.1,4.9,0.4,6.5,0.8c3,0.9,4.6,3.4,4.6,7.5V18.7z"/>
	<path class="st3" d="M183.1,18.9c-2.7,0-4.3,2.8-4.8,8.5c0,4.5,1.3,7.7,3.8,9.5h1.2c1.9,0,3-3.1,3.4-9.3
		C186.3,21.8,185.1,18.9,183.1,18.9z"/>
	<path class="st0" d="M199.4,23.7v-0.2c0-8.1-1.9-14.3-5.6-18.6c-1-1.9-5.7-2.8-14.1-2.8c-2.3,0-4.6,0.6-6.7,1.8
		c-4.9,4.3-7.3,10.5-7.3,18.6c0,2.4,0.2,8.6,0.6,18.6c0,11-1.2,21.3-3.6,30.9c0,0.2,0.1,0.5,0.4,0.8c1.2,0,3.8-0.1,7.9-0.2
		c0.8,0,1.2-2.3,1.2-6.9V51.9c2.3-0.4,4.3-0.6,5.9-0.6c6.5,0.1,11.2,0.3,14.1,0.6c0.7,0,1,2.4,1,7.1v13.3c0,0.4,1.1,0.6,3.2,0.6
		c0.4,0,1.7-0.1,4-0.2l0.4-0.2c-0.5-4.8-1.1-14.7-1.8-29.7C199,42.1,199.1,35.8,199.4,23.7z M191.4,43.7c-7.4,0.5-12.7,0.8-15.9,0.8
		h-2.2c-1.1,0-1.6-3.4-1.6-10.3c0-8.3,0.7-14.5,2-18.6c0-3.3,2.8-5.3,8.5-5.9h1.8c2.3,0,4.4,0.7,6.1,2c1.9,0.7,3.1,6.8,3.6,18.2
		C193.8,36.5,193,41.1,191.4,43.7z"/>
	<path class="st0" d="M237.1,34c-1.9-2.6-7.3-4.6-16.1-5.9c-4.6-1.5-6.9-4.6-6.9-9.5c0-0.6,0.1-1.7,0.4-3.4c0.9-4.5,3.4-6.7,7.7-6.7
		h0.4c2.7,0,4.9,0.2,6.5,0.6c3,0.5,4.6,2.2,4.6,5.4c0.5,4,2.3,5.9,5.4,5.9h1c1.3,0,2-0.6,2-1.8v-0.4c0-6.8-0.9-10.9-2.8-12.5
		c-4-2.8-8.7-4.2-14.3-4.2h-2.2c-1.6,0-3.9,0.2-6.9,0.6c-6.3,1.3-9.5,5.9-9.5,13.9v3.2c0,6.9,1.1,11.1,3.2,12.5
		c0,1.6,6.4,3.9,19.2,7.1c3.6,1.5,5.4,6.3,5.4,14.5c0,3.1-0.4,5.7-1.2,7.5c-1,2.9-3.4,4.4-7.3,4.4l-3.4-0.4c-4.9-1-7.3-2.1-7.3-3.2
		c0-4.6-1.5-6.9-4.6-6.9h-0.2c-2.5,0-3.8,1.8-3.8,5.4c0,8.6,5.7,12.9,17.2,12.9h1.2c4.4,0,8.3-0.7,11.7-2c3.8-2.1,5.7-7.2,5.7-15.5
		v-1.2c0-5.8-0.3-10.2-0.8-13.1C240.1,37.3,238.7,34.9,237.1,34z"/>
	<path class="st0" d="M265.8,1.5c-9.7,0.1-15.7,0.2-18,0.2l-1,0.2c-0.8,0-1.2,1.3-1.2,4v0.8c0.5,0.9,1.5,1.4,2.8,1.4
		c2.3,0,5.4-0.1,9.3-0.4c1.9,0.1,3.5,0.3,4.8,0.6c0.5,8.7,0.8,14.2,0.8,16.7V30c0,3.4-0.1,5.7-0.2,7.1c0.1,2,0.2,4.6,0.2,7.7v1.4
		c0,5.9-0.1,14.5-0.2,25.8c0.6,0.5,1.8,0.8,3.6,0.8c2.9-0.2,4.4-0.5,4.4-0.8c0-5.9-0.1-12-0.2-18.2c0.1-8.4,0.2-13.7,0.2-16.1
		c-0.1-7.7-0.2-12.8-0.2-15.1c0.5-8.1,0.8-12.9,0.8-14.3c0.1-0.3,1.8-0.6,5.2-0.8l0.4,0.2C281.7,8,284.7,8,286,8
		c1.8,0,2.8-0.6,2.8-1.8V6.1c0-1.6-0.2-2.9-0.6-4.2C279,1.6,271.5,1.5,265.8,1.5z"/>
	<path class="st0" d="M324.6,6.4c-1.6-2.6-5.7-4-12.5-4h-5.7c-1.7,0-2.6,0.1-2.6,0.2c-5.7,0-9.2,2-10.7,6.1
		c-1.5,1.8-2.2,11.1-2.2,28.2v22.6c0,4,0.7,7.3,2,9.7c2,2.4,6.3,3.6,13.1,3.6h6.7c2.9,0,5.8-0.3,8.7-0.8c4.4-1.1,6.5-4.7,6.5-10.7
		c0-8.2,0.1-14.7,0.2-19.6c-0.1-5.6-0.2-9.3-0.2-11.1C328,16.5,326.9,8.5,324.6,6.4z M318.3,63.8c-1.4,1.2-4.3,2.1-8.9,2.8
		c-3.4-0.5-5.9-1.2-7.5-2c-2.2-1.3-3.4-5.5-3.4-12.5c0-8.7,0.1-13.1,0.2-13.1c0-16.8,0.5-25.9,1.4-27.2c0.7-1.7,3.6-2.8,8.7-3.2h1.4
		c4.7,0,7.6,1.1,8.7,3.4c1,0,1.6,12.4,1.8,37.1C320.7,56.7,319.9,61.6,318.3,63.8z"/>
	<path class="st1" d="M309,28.7h-0.2c-2,0-3.1,2.9-3.4,8.7c0,6.2,1.2,9.3,3.6,9.3h0.2c2.5-0.5,4-3.4,4.4-8.7v-2.2
		C312.8,31,311.3,28.7,309,28.7z"/>
	<path class="st0" d="M362.9,31.6v-0.4c1.9,0,3.1-4.4,3.8-13.1c0-4.1-0.8-7.6-2.4-10.3c-3.3-4.1-10.4-6.1-21.4-6.1
		c-1.1,0-3,0.1-5.7,0.4c-0.8,0-1.2,2-1.2,5.9v10.7c0,1.9,0.1,3.3,0.2,4.2c-0.1,1.1-0.2,2.6-0.2,4.4V34c0,6.9-0.3,19.6-0.8,38.1
		c0,0.5,0.4,0.8,1.2,0.8h2.4c2,0,3.4-0.2,4-0.6c0-0.1-0.1-0.3-0.2-0.6c0-2.9-0.1-9.3-0.4-19c0.1-7.7,0.4-13,0.8-16.1
		c0.6-1.5,2.5-2.2,5.6-2.2c3.6,0,6.9,1.4,10.1,4.2c2,1.9,3,11.2,3,28v2.6c0,0.7-0.1,1.8-0.2,3.4l0.4,0.2h6.9c0.3,0,0.4-0.1,0.4-0.4
		v-4.6c0-10.7-0.8-20.1-2.4-28.2C366.6,36.4,365.4,33.7,362.9,31.6z M360.3,18.7c0,1.6-0.2,2.9-0.6,4.2c0,2.4-2.5,3.6-7.5,3.6
		c-3.4-0.1-6.3-0.4-8.7-0.8c-0.4-5.8-0.6-10.2-0.6-13.1V10l6.3-0.4c2.7,0.1,4.9,0.4,6.5,0.8c3,0.9,4.6,3.4,4.6,7.5V18.7z"/>
	<path class="st4" d="M376.5,15.2h-1.4c-0.6,0-1.1,0.1-1.6,0.4c0-0.3-0.4-0.5-1.2-0.6h-0.2c-0.9,0-1.5,0.5-2,1.4v1
		c0,1.3,1.1,2.1,3.2,2.4c1.4-0.3,2.2-0.4,2.6-0.4l1.4,0.2c1.2-0.4,1.8-1.1,1.8-2.2C379.1,15.9,378.2,15.2,376.5,15.2z"/>
	<path class="st4" d="M372.3,13c0.8,0,2.2-0.1,4.2-0.2c0.3,0.1,0.5,0.2,0.6,0.2c1.2-0.5,1.8-1.1,1.8-2v-0.4c0-1.3-1-2-3-2.2
		l-2.6,0.4l-0.6-0.4h-0.8c-1.2,0-1.8,0.7-2,2v0.2C369.9,11.7,370.7,12.5,372.3,13z"/>
	<path class="st4" d="M376.3,2.5h-0.4c-0.9,0-1.7,0.1-2.2,0.4l-1.4-0.6c-1.5,0.3-2.2,0.9-2.2,2v0.4c0,1,0.8,1.8,2.4,2.4
		c2.4-0.1,3.9-0.2,4.6-0.2c1.2,0,1.8-0.7,2-2V4.7C379.1,3.2,378.1,2.5,376.3,2.5z"/>
	<path class="st0" d="M389.8,1.7h-1.4c-1.3,0-2.5,0.1-3.8,0.2c-1.6,0-2.4,2-2.4,5.9c0.1,13.7,0.2,22.5,0.2,26.2
		c0,2.3-0.1,5.3-0.2,8.7c0.1,1.2,0.2,3.7,0.2,7.3c-0.4,9.4-0.6,14.9-0.6,16.7v3c0.1,2.1,0.4,3.2,1,3.2h6.7l0.4-0.2
		c0-0.8-0.1-7.9-0.4-21.4c0.5-13.7,0.8-28,0.8-43v-5C390.4,2.3,390.2,1.8,389.8,1.7z"/>
	<path class="st0" d="M424.2,66.1c-3.1,0.4-6.7,0.6-10.9,0.6h-4.6c-1.3,0-2.6-0.1-4-0.4c-1.1,0-1.8-3.8-2.2-11.5l0.8-20.8l0.2-0.4
		c2.4,0,6.7-0.3,13.1-0.8c2,0,3-1.3,3-4c0-1.8-0.5-2.8-1.6-2.8h-0.4c-1.2,0-4.9,0.3-10.9,0.8l-3.8-0.4c-0.3-3-0.4-6.7-0.4-11.1v-4.2
		c0-0.7,0.1-1.3,0.2-1.8c0-1.5,2.2-2.2,6.5-2.2c6.9,0.4,11.2,0.6,12.7,0.6c2.4,0,3.6-0.7,3.6-2c0-0.6-0.1-1.7-0.4-3.4
		c0-0.7-1.3-1-3.8-1h-6.7c-1.5,0-3.8,0.1-7.1,0.4c-1.3,0-4.8-0.1-10.3-0.2c-1.2,0-1.8,2-1.8,5.9c0,2.3,0.1,10.4,0.2,24.2
		c0,2.6-0.1,6.1-0.2,10.5c0.1,3.2,0.2,6.4,0.2,9.7c0,2.2-0.1,5.9-0.2,11.1c0.1,4.4,0.4,7.3,0.8,8.7c0,0.7,1.5,1,4.4,1h23
		c1.4,0,2.1-1.4,2.4-4.2v-0.2C426,66.9,425.4,66.1,424.2,66.1z"/>
	<path class="st0" d="M461.5,41.1c-1.3-3.9-2.8-6.2-4.4-7.1c-1.9-2.6-7.3-4.6-16.1-5.9c-4.6-1.5-6.9-4.6-6.9-9.5
		c0-0.6,0.1-1.7,0.4-3.4c0.9-4.5,3.4-6.7,7.7-6.7h0.4c2.7,0,4.9,0.2,6.5,0.6c3,0.5,4.6,2.2,4.6,5.4c0.5,4,2.3,5.9,5.4,5.9h1
		c1.3,0,2-0.6,2-1.8v-0.4c0-6.8-0.9-10.9-2.8-12.5c-4-2.8-8.7-4.2-14.3-4.2h-2.2c-1.6,0-3.9,0.2-6.9,0.6c-6.3,1.3-9.5,5.9-9.5,13.9
		v3.2c0,6.9,1.1,11.1,3.2,12.5c0,1.6,6.4,3.9,19.2,7.1c3.6,1.5,5.4,6.3,5.4,14.5c0,3.1-0.4,5.7-1.2,7.5c-1,2.9-3.4,4.4-7.3,4.4
		l-3.4-0.4c-4.9-1-7.3-2.1-7.3-3.2c0-4.6-1.5-6.9-4.6-6.9h-0.2c-2.5,0-3.8,1.8-3.8,5.4c0,8.6,5.7,12.9,17.2,12.9h1.2
		c4.4,0,8.3-0.7,11.7-2c3.8-2.1,5.7-7.2,5.7-15.5v-1.2C462.3,48.4,462,44,461.5,41.1z"/>
</g>
</svg>
