<svg version="1.1" id="Layer_1" xmlns="http://www.w3.org/2000/svg" xmlns:xlink="http://www.w3.org/1999/xlink" x="0px" y="0px"
   viewBox="0 0 100 100" enable-background="new 0 0 100 100" xml:space="preserve">
<circle fill="#646565" stroke="#FFFFFF" stroke-width="3" stroke-miterlimit="10" cx="50" cy="50.5" r="45.5"/>
<path fill="#FFFFFF" d="M19.539,40.606c0,0-13.289,10.825,18.617,17.965c31.301,7.006,50.078-11.523,41.138-18.097
  c0,0,6.625,2.645,4.028,9.062c-1.58,3.911-4.619,5.375-4.491,7.981c0.329,6.608-5.487,25.459-30.676,24.948
  c-25.188-0.511-28.694-17.919-28.694-20.991c0-3.071-3.155-8.692-5.032-11.765C12.551,46.637,15.372,41.171,19.539,40.606"/>
<path fill="#FFFFFF" d="M40.539,34.878c0,0-15.298,1.9-19.17,9.279c-3.767,7.176,18.247,10.582,26.12,11.461
  c10.899,1.217,27.976-1.339,29.698-10.921C78.625,36.708,49.8,33.648,40.539,34.878"/>
<path fill="#646565" d="M31.835,56.51c0,0-9.712,12.73,11.165,14.83c21.923,2.208,15.656-12.707,15.656-12.707l-6.072,0.706
  c0,0,3.069,7.256-8.583,6.049c-13.345-1.383-6.535-7.532-6.535-7.532L31.835,56.51z"/>
<path fill="#FFFFFF" d="M17.272,43.686c0,0-15.553-3.036-2.808-10.311c11.773-6.722,16.022-4.941,20.112,0.275
  c0,0-4.215,1.023-5.009,1.427c0,0-1.732-4.97-12.021,0.36c0,0-5.529,3.761,2.619,4.58C20.165,40.018,17.979,42.02,17.272,43.686"/>
<path fill="#FFFFFF" d="M81.435,43.682c0,0,17.488-4.079,4.374-10.661c-13.805-6.929-17.244-3.711-21.511,0.741
  c0,0,3.895,0.625,4.873,1.202c0,0,3.477-4.137,11.808,0.488c0,0,5.839,2.489-1.685,5.023C79.294,40.475,81.335,41.651,81.435,43.682
  "/>
</svg>
