<?xml version="1.0" encoding="utf-8"?>
<!-- Generator: Adobe Illustrator 22.1.0, SVG Export Plug-In . SVG Version: 6.00 Build 0)  -->
<svg version="1.1" id="Layer_1" xmlns="http://www.w3.org/2000/svg" xmlns:xlink="http://www.w3.org/1999/xlink" x="0px" y="0px"
	 viewBox="0 0 100 100" enable-background="new 0 0 100 100" xml:space="preserve">
<g>
	<circle fill="#57419A" cx="50" cy="50.5" r="45.5"/>
	<circle fill="none" stroke="#FFFFFF" stroke-width="3" stroke-miterlimit="10" cx="50" cy="50.5" r="45.5"/>
</g>
<g>
	<path fill-rule="evenodd" clip-rule="evenodd" fill="#FFFFFF" d="M51.655,12.667c0.67,0.15,1.339,0.292,2.006,0.45
		c3.078,0.73,5.521,2.462,7.523,4.848c1.908,2.278,2.923,4.931,3.126,7.895c0.013,0.191,0.002,0.385,0.002,0.656
		c-0.243,0-0.454,0-0.665,0c-2.151,0-4.303-0.017-6.454,0.006c-1.746,0.018-2.72,1.725-1.835,3.215
		c0.431,0.728,1.143,0.978,1.966,0.976c2.092-0.005,4.185-0.002,6.276-0.002c0.777,0.001,0.778,0.002,0.778,0.767
		c0.001,1.557,0.001,3.114,0.001,4.757c-0.263,0-0.473,0-0.683,0c-2.171,0-4.342-0.008-6.513,0.004
		c-0.83,0.005-1.474,0.365-1.893,1.104c-0.425,0.75-0.365,1.484,0.099,2.175c0.455,0.68,1.14,0.929,1.942,0.926
		c2.053-0.007,4.105-0.005,6.158,0c0.982,0.002,0.887-0.103,0.89,0.887c0.005,1.165,0.001,2.329,0.002,3.494
		c0.001,0.818,0.001,0.819-0.792,0.82c-2.092,0.001-4.184-0.004-6.275,0.003c-1.237,0.004-2.035,0.631-2.262,1.749
		c-0.218,1.077,0.545,2.191,1.628,2.357c0.311,0.048,0.629,0.06,0.944,0.061c2.032,0.006,4.064,0.016,6.098-0.005
		c0.474-0.005,0.651,0.1,0.627,0.623c-0.19,3.883-1.738,7.124-4.583,9.744c-3.969,3.655-8.615,4.566-13.747,3.224
		c-2.421-0.635-4.427-2.022-6.161-3.811c-2.48-2.559-3.805-5.612-3.974-9.176c-0.022-0.48,0.117-0.611,0.584-0.606
		c2.21,0.02,4.42,0.01,6.631,0.007c0.686-0.001,1.334-0.101,1.824-0.666c0.538-0.621,0.713-1.322,0.441-2.091
		c-0.261-0.739-0.802-1.207-1.584-1.351c-0.27-0.049-0.549-0.06-0.825-0.061c-2.151-0.005-4.302-0.02-6.453,0.008
		c-0.535,0.007-0.67-0.17-0.66-0.679c0.03-1.477,0.011-2.955,0.011-4.496c0.269-0.014,0.498-0.037,0.726-0.038
		c2.21-0.003,4.42,0.01,6.631-0.007c1.382-0.011,2.32-0.934,2.272-2.186c-0.045-1.166-0.961-2-2.267-2.011
		c-2.151-0.017-4.302-0.005-6.454-0.006c-0.272,0-0.543,0-0.862,0c0-1.859,0-3.659,0-5.524c0.404,0,0.774,0,1.145,0
		c2.072,0,4.145,0.013,6.217-0.006c1.417-0.014,2.397-1.104,2.205-2.404c-0.151-1.03-1.047-1.776-2.184-1.782
		c-2.23-0.01-4.461-0.003-6.691-0.004c-0.21,0-0.42,0-0.763,0c0.141-0.982,0.196-1.889,0.407-2.758
		c1.231-5.065,4.393-8.44,9.202-10.314c0.692-0.27,1.448-0.374,2.175-0.552c0.321-0.079,0.643-0.149,0.965-0.224
		C49.603,12.667,50.629,12.667,51.655,12.667z"/>
	<path fill-rule="evenodd" clip-rule="evenodd" fill="#FFFFFF" d="M35.193,86.808c-0.455-0.296-0.977-0.525-1.356-0.899
		c-0.875-0.862-1.05-1.951-0.579-3.057c0.481-1.129,1.417-1.73,2.66-1.736c3.198-0.016,6.396-0.007,9.594-0.008
		c0.454,0,0.911,0.028,1.359-0.018c0.147-0.016,0.39-0.225,0.392-0.35c0.025-1.813,0.018-3.627,0.018-5.476
		c-0.991-0.187-1.955-0.35-2.911-0.551c-2.928-0.611-5.646-1.742-8.142-3.385c-3.069-2.02-5.599-4.581-7.646-7.635
		c-1.885-2.811-3.113-5.888-3.697-9.204c-0.259-1.47-0.347-2.979-0.398-4.475c-0.068-1.971-0.051-3.947-0.018-5.92
		c0.029-1.697,1.274-2.909,2.879-2.891c1.566,0.017,2.754,1.242,2.784,2.924c0.042,2.368-0.025,4.74,0.093,7.103
		c0.152,3.06,1.036,5.927,2.623,8.565c1.601,2.661,3.703,4.854,6.248,6.603c2.441,1.681,5.158,2.695,8.103,3.099
		c3.573,0.489,7.06,0.133,10.403-1.202c2.884-1.148,5.306-2.99,7.392-5.285c2.896-3.186,4.591-6.923,4.977-11.197
		c0.18-1.999,0.09-4.022,0.123-6.035c0.011-0.69-0.02-1.384,0.043-2.07c0.126-1.378,1.274-2.442,2.633-2.497
		c1.444-0.058,2.676,0.907,2.93,2.301c0.039,0.213,0.075,0.432,0.068,0.646c-0.096,3.192-0.111,6.391-0.332,9.575
		c-0.144,2.066-0.837,4.038-1.638,5.96c-1.12,2.69-2.704,5.075-4.653,7.218c-2.929,3.221-6.379,5.703-10.563,7.015
		c-1.703,0.534-3.481,0.831-5.226,1.233c-0.112,0.027-0.226,0.049-0.406,0.087c0,0.966,0,1.928,0,2.892
		c0,0.77,0.029,1.54-0.011,2.309c-0.028,0.515,0.127,0.677,0.657,0.673c3.493-0.022,6.987-0.006,10.48-0.014
		c0.866-0.003,1.648,0.2,2.263,0.833c1.417,1.458,1.06,3.616-0.744,4.569c-0.187,0.099-0.372,0.2-0.557,0.301
		C55.091,86.808,45.142,86.808,35.193,86.808z"/>
</g>
</svg>
