<svg version="1.1" id="Layer_1" xmlns="http://www.w3.org/2000/svg" xmlns:xlink="http://www.w3.org/1999/xlink" x="0px" y="0px"
   viewBox="0 0 100 100" enable-background="new 0 0 100 100" xml:space="preserve">
<circle fill="#F15C3B" stroke="#FFFFFF" stroke-width="3" stroke-miterlimit="10" cx="50" cy="50.5" r="45.5"/>
<polygon fill="#FFFFFF" points="66.024,27.903 92.117,54.643 79.898,55.394 79.962,53.339 61.45,33.807 "/>
<polygon fill="#FFFFFF" points="62.351,25.571 28.188,37.178 7.99,58.046 33.238,59.767 "/>
<polygon fill="#FFFFFF" points="75.819,55.007 58.328,37.08 39.701,58.627 39.762,71.025 52.167,69.452 51.98,49.075 64.438,48.131 
  64.65,68.533 75.789,66.944 "/>
<polygon fill="#FFFFFF" points="33.2,64.095 35.833,61.119 35.833,71.539 11.808,66.329 11.904,62.119 "/>
<rect x="42.7" y="31.985" transform="matrix(0.6461 -0.7633 0.7633 0.6461 -4.9683 54.171)" fill="#FFFFFF" width="26.462" height="0.917"/>
<rect x="33.048" y="35.087" transform="matrix(0.6461 -0.7633 0.7633 0.6461 -10.7522 47.9029)" fill="#FFFFFF" width="26.461" height="0.917"/>
<rect x="20.758" y="39.855" transform="matrix(0.6468 -0.7627 0.7627 0.6468 -18.7407 40.1621)" fill="#FFFFFF" width="26.462" height="0.918"/>
<rect x="11.341" y="41.888" transform="matrix(0.6464 -0.763 0.763 0.6464 -23.6214 33.7213)" fill="#FFFFFF" width="26.462" height="0.917"/>
<rect x="29.874" y="31.029" transform="matrix(0.6296 -0.7769 0.7769 0.6296 -17.9147 37.4644)" fill="#FFFFFF" width="0.917" height="12.982"/>
<rect x="40.449" y="28.46" transform="matrix(0.6299 -0.7767 0.7767 0.6299 -12.0058 44.7107)" fill="#FFFFFF" width="0.917" height="12.983"/>
<rect x="50.61" y="24.385" transform="matrix(0.6305 -0.7762 0.7762 0.6305 -4.3685 50.701)" fill="#FFFFFF" width="0.918" height="11.108"/>
<rect x="59.775" y="22.886" transform="matrix(0.7514 -0.6599 0.6599 0.7514 -1.9034 46.1044)" fill="#FFFFFF" width="0.917" height="5.384"/>
</svg>
