<?xml version="1.0" encoding="utf-8"?>
<!-- Generator: Adobe Illustrator 22.1.0, SVG Export Plug-In . SVG Version: 6.00 Build 0)  -->
<svg version="1.1" id="Layer_1" xmlns="http://www.w3.org/2000/svg" xmlns:xlink="http://www.w3.org/1999/xlink" x="0px" y="0px"
	 viewBox="0 0 94.1 94.1" style="enable-background:new 0 0 94.1 94.1;" xml:space="preserve">
<style type="text/css">
	.st0{fill:#EF502E;}
	.st1{fill:none;stroke:#FFFFFF;stroke-width:3;stroke-miterlimit:10;}
	.st2{fill:#FFFFFF;}
</style>
<title>oral_histories</title>
<circle class="st0" cx="47.1" cy="47.1" r="45.6"/>
<circle class="st1" cx="47.1" cy="47.1" r="45.6"/>
<g>
	<g>
		<g>
			<path class="st0" d="M38.5,35.2c0.8,0.3,1.5,0.6,2.3,1c0.1,0,0.5,0.2,0.6,0.3c0.3,0.1,0.5,0.3,0.8,0.3c0.3,0.2,0.8,0.3,1.1,0.6
				c0.6,0.8,1.2,1.5,1.8,2.2c1.2,1.5,2.6,2.8,4.1,4c2.3,1.9,5.3,3.4,8.3,2.7c1.1-0.3,2.3-0.6,3.4-0.7c1-0.1,2.2-0.1,3.1,0.1
				c0.5,0.1,1,0.4,1.5,0.6c0.2,0.1,0.5,0.2,0.7,0.3c0.8,0.3,1.7,0.5,2.5,1c0.8,0.5,1.6,1.1,2.3,1.7c1.7-3.7,5-4,8.5-4.4
				c-0.1-2.4-0.6-4.7-0.6-7.1c-0.1-3.1,0.3-6.3-0.8-9.2c-1.3-3-5.8-5.5-9.2-5.5C63,23,57,23,51,23c-3.7,0-6.9,0.9-10.7,0.7
				c-4.6-0.3-9.3-0.7-14-0.7c-5.3,0-10.7,5.3-10.7,10.7c0,3.3,0.1,6.6,0.3,9.9c0,0.1,0,0.1,0,0.2c3.6-1.5,6.6-4.3,9.5-6.9
				c0.3-0.3,0.8-0.8,1.2-1c0.6-0.2,1.1-0.3,1.7-0.5c2.2-0.4,4.3-0.8,6.5-0.8C36.1,34.7,37.3,34.8,38.5,35.2
				C38.4,35.2,38.5,35.2,38.5,35.2z"/>
			<path class="st2" d="M71.4,50.9L70.3,50c-0.6-0.5-1.3-1.1-2-1.5c-0.4-0.3-0.9-0.4-1.4-0.6c-0.3-0.1-0.7-0.2-1-0.4l0,0
				c-0.2-0.1-0.5-0.1-0.7-0.3l-0.3-0.1c-0.3-0.2-0.7-0.3-1-0.4c-0.8-0.2-1.8-0.1-2.8,0c-1.2,0.2-2.3,0.4-3.2,0.7
				c-3,0.7-6.1-0.3-9.3-2.9c-1.4-1.2-2.9-2.6-4.2-4.1c-0.4-0.4-0.8-0.9-1.2-1.4c-0.2-0.2-0.4-0.5-0.6-0.7c-0.1-0.1-0.3-0.1-0.4-0.2
				c-0.1-0.1-0.3-0.1-0.4-0.2c-0.3-0.1-0.5-0.2-0.6-0.3l-0.3-0.2c-0.1,0-0.1-0.1-0.2-0.1h-0.1l-0.2-0.1c-0.7-0.3-1.4-0.6-2.1-0.9
				h-0.8l0-0.3c-0.8-0.2-1.7-0.3-2.6-0.3c-2.1,0-4.1,0.4-6.3,0.8c-0.6,0.1-1,0.2-1.5,0.4c-0.3,0.1-0.6,0.5-0.9,0.8l-0.9,0.8
				c-2.7,2.4-5.5,4.9-8.9,6.3L15,45.3v-1.7c-0.3-3.6-0.3-7.2-0.3-9.9c0-5.9,5.8-11.7,11.7-11.7c3.6,0,7.2,0.2,10.6,0.5
				c1.2,0.1,2.3,0.2,3.5,0.2c2,0.1,3.8-0.1,5.7-0.3c1.6-0.2,3.2-0.4,4.9-0.4h17.9c4,0,8.7,2.8,10.1,6.1c0.9,2.4,0.9,5,0.9,7.4
				c0,0.7,0,1.5,0,2.2c0,1.3,0.2,2.5,0.3,3.9c0.1,1.1,0.2,2.1,0.3,3.3l0.1,0.9l-1.3,0.1c-3.4,0.4-6,0.7-7.4,3.8L71.4,50.9z
				 M62.5,44.6c0.6,0,1.2,0,1.8,0.2c0.5,0.1,0.9,0.3,1.3,0.5l0.5,0.3c0.1,0,0.2,0.1,0.3,0.1l0.1,0c0.3,0.1,0.6,0.2,0.9,0.3
				c0.6,0.2,1.2,0.4,1.8,0.8c0.5,0.3,1,0.6,1.4,1c1.8-2.9,4.8-3.4,7.8-3.8c-0.1-0.7-0.1-1.5-0.2-2.2c-0.1-1.3-0.3-2.6-0.3-4
				c0-0.8,0-1.5,0-2.3c0-2.3,0.1-4.6-0.7-6.6c-1.1-2.5-5.1-4.8-8.3-4.8H51c-1.6,0-3.1,0.2-4.7,0.4c-1.9,0.2-3.9,0.5-6.1,0.3
				c-1.2-0.1-2.3-0.1-3.5-0.2c-3.4-0.2-7-0.5-10.5-0.5c-4.8,0-9.7,4.9-9.7,9.7c0,2.4,0,5.4,0.3,8.6C19.5,41,21.7,39,24,37l0.9-0.8
				c0.3-0.3,0.8-0.8,1.4-1.1l0.1,0c0.6-0.2,1.2-0.4,1.9-0.5c2.2-0.4,4.4-0.9,6.7-0.9c1.4,0,2.7,0.2,3.8,0.5l0.7,0.2v0.1
				c0.6,0.2,1.1,0.5,1.7,0.7c0.2,0.1,0.4,0.2,0.7,0.3l0.3,0.2c0.2,0.1,0.2,0.1,0.3,0.2l0.3,0.1c0.1,0.1,0.2,0.1,0.3,0.2
				c0.3,0.1,0.7,0.3,1,0.6l0.1,0.1c0.2,0.3,0.4,0.6,0.7,0.8c0.4,0.5,0.7,0.9,1.1,1.4c1.3,1.5,2.6,2.8,4,3.9c1.8,1.5,4.6,3.2,7.5,2.5
				c0.9-0.3,2.1-0.5,3.5-0.7C61.3,44.7,61.9,44.6,62.5,44.6z"/>
		</g>
		<g>
			<path class="st2" d="M56,60.4c-5.3-5.3-13.7,0-16.1-5.3c-2.4-4.9,7.4-3.9,11.2-6.8c0.7-0.7,1-1.6,1-2.4c-1.3-0.6-2.6-1.5-3.9-2.6
				c-0.8-0.7-1.5-1.5-2.2-2.2c-0.7-0.6-0.8-1.8-1.2-2.6c-0.3-0.5-0.6-0.9-0.6-1.5c0-0.1,0-0.3-0.1-0.4c-0.1-0.1-0.3-0.1-0.3,0
				c-0.1-0.4,0-0.8,0-1.2c-0.3,0.2-0.8,0.1-1.2-0.2c-0.3-0.2-0.6-0.6-1-0.8c-0.1-0.1-0.3-0.2-0.4-0.3c-0.1-0.1-0.1-0.3-0.2-0.4
				c-0.1-0.1-0.1-0.1-0.2-0.1c-0.2-0.1-0.4-0.3-0.6-0.6c0.1,0.1-0.5,0-0.5,0c-0.3-0.1-0.6-0.5-0.8-0.8c-0.3-0.3-0.6-0.6-1-0.9
				c-0.5-0.3-0.9-0.6-1.4-0.9c-0.1,0-0.1-0.1-0.1-0.1c-0.3-0.1-0.4,0.4-0.6,0.3c-0.1,0-0.1-0.1-0.1-0.1c-0.3-0.1-0.6-0.1-0.8,0
				c-0.3,0.1-0.5,0.3-0.8,0.4c-0.3,0.1-0.8,0.1-1.1,0.2c-0.4,0.1-0.7,0.6-1,0.8c-0.1-0.1-0.4-0.2-0.6-0.2c-0.3,0.5-0.8,0.8-1.4,0.8
				c0.1,0.1,0.1,0.3-0.1,0.3c-0.1,0.1-0.2,0.1-0.3,0.2c-0.3,0.2-0.5,0.5-0.6,0.8c-0.2,0.3-0.5,0.5-0.8,0.8c-0.6,0.6-1.2,1.1-1.9,1.6
				c-1.2,1.1-2.4,2.2-3.7,3.3c-2,1.7-4.2,3.4-6.6,4.4c0.1,0.8,0.1,1.5,0.1,2.2c-0.3,2.9-0.5,5.8-0.5,8.8c0,4,2.8,7.6,6.2,9.4
				c1.2,0.7,3.1,0.8,4,1.9c1,1.3,0.4,3.5,0.4,5.1c0,1.9-0.6,4.4,0.2,6.2c1.6,3.9,5.3-1.5,6.8-3.1c2.7-2.7,5.1-6.2,8.5-8.1
				c0.2-0.1,0.4-0.2,0.7-0.3c2.9-1.2,6.6-0.6,9.6-0.6c2.6,0,5.1-0.3,7.7-0.6c2.1-0.1,4.1-0.2,6.2,0.1c0.8,0.1,1.7,0.2,2.6,0.1
				c0.6,0,1.2-0.1,1.9-0.2c-0.1-0.3-0.2-0.6-0.3-0.9C67.3,58.4,59,63.3,56,60.4z"/>
			<path class="st2" d="M28,80c-0.1,0-0.3,0-0.4,0c-0.9-0.2-1.6-0.8-2.1-2c-0.6-1.5-0.5-3.3-0.4-4.8c0-0.6,0.1-1.2,0.1-1.7
				c0-0.4,0-0.9,0.1-1.4c0.1-1.1,0.2-2.4-0.3-3c-0.4-0.5-1.2-0.8-2-1c-0.6-0.2-1.2-0.4-1.7-0.7c-4-2.1-6.7-6.3-6.7-10.3
				c0-3.3,0.3-6.5,0.5-8.9c0.1-0.6,0-1.3-0.1-2L15,43.3l0.7-0.3c2.2-0.9,4.2-2.4,6.3-4.2l3.7-3.2c0.6-0.5,1.3-1.1,1.9-1.6
				c0.1-0.1,0.2-0.2,0.3-0.3c0.1-0.1,0.2-0.2,0.2-0.2c0.1-0.3,0.3-0.6,0.5-0.8l-1.1-1.1h2.4c0.2,0,0.4-0.1,0.5-0.3l0.3-0.5h0.6
				c0.1,0,0.2,0,0.4,0c0.2-0.2,0.5-0.5,0.9-0.6c0.3-0.1,0.5-0.1,0.8-0.2c0.1,0,0.2,0,0.3,0l0.1,0c0,0,0,0,0-0.1
				c0.2-0.1,0.4-0.3,0.7-0.4c0.3-0.1,0.6-0.2,1.1-0.1c0.3-0.2,0.5-0.3,0.8-0.2h0.3l0.2,0.2c0.2,0.1,0.4,0.3,0.6,0.4l-1-2l4.9,4.9
				l0,0c0.1,0.1,0.2,0.2,0.3,0.2c0.2,0.2,0.3,0.4,0.4,0.6l0.1,0c0.3,0.2,0.5,0.3,0.6,0.5c0.1,0.1,0.2,0.2,0.3,0.3l0.1,0.1
				c0,0,0.1,0.1,0.1,0.1l1.4-0.9v1.8c0,0.2,0,0.3,0,0.5c0.1,0.1,0.2,0.2,0.3,0.3c0.2,0.3,0.2,0.6,0.2,0.8c0,0.3,0.2,0.5,0.4,0.9
				l0.1,0.2c0.2,0.4,0.3,0.8,0.5,1.2c0.1,0.5,0.3,0.9,0.5,1.1c0.4,0.4,0.8,0.7,1.1,1.1c0.4,0.4,0.7,0.7,1.1,1
				c1.2,1.1,2.4,1.9,3.6,2.5l0.6,0.3l-0.1,0.7c-0.1,1.2-0.6,2.3-1.3,3.1l-0.1,0.1c-1.6,1.2-4,1.8-6.3,2.3c-2.1,0.5-4.4,1-4.8,2
				c-0.1,0.3-0.1,0.7,0.2,1.3c0.9,2,2.8,2.1,6.1,2.1c3.1,0,6.9,0,9.9,3c0.9,0.9,2.9,0.8,4.9,0.6c3.3-0.2,7.4-0.5,9.5,3.5
				c0.2,0.4,0.3,0.8,0.4,1.1l0.3,1.1l-1.2,0.1c-0.2,0-0.5,0.1-0.7,0.1c-0.4,0.1-0.9,0.1-1.4,0.1c-0.8,0.1-1.7,0-2.7-0.2
				c-1.9-0.3-3.7-0.3-6-0.1c-0.7,0.1-1.4,0.1-2.2,0.2c-1.8,0.2-3.7,0.4-5.6,0.4c-0.7,0-1.5,0-2.3-0.1c-2.4-0.1-4.9-0.2-7,0.6l-0.1,0
				c-0.2,0.1-0.3,0.1-0.4,0.1l-0.1,0.1c-2.3,1.2-4.1,3.3-5.9,5.3c-0.8,0.9-1.5,1.7-2.4,2.6c-0.2,0.2-0.5,0.6-0.9,1
				C31.6,77.9,29.9,80,28,80z M17.1,44.6c0,0.6,0.1,1.1,0,1.7c-0.2,2.3-0.5,5.5-0.5,8.7c0,3.8,2.8,7.1,5.6,8.6
				c0.4,0.2,0.9,0.4,1.4,0.5c1,0.3,2.2,0.7,3,1.7c1,1.3,0.8,3,0.7,4.5c0,0.4-0.1,0.8-0.1,1.2c0,0.6,0,1.2-0.1,1.9
				c-0.1,1.4-0.2,2.9,0.2,3.9c0.2,0.5,0.4,0.7,0.6,0.8c0.9,0.1,2.8-2.1,3.6-3c0.4-0.4,0.7-0.8,1-1.1c0.8-0.8,1.5-1.6,2.3-2.5
				c1.9-2.2,3.9-4.4,6.5-5.7c0.3-0.2,0.6-0.3,0.9-0.4c2.4-1,5.2-0.8,7.7-0.7c2.7,0.1,5.1,0,7.6-0.3c0.7-0.1,1.5-0.1,2.2-0.2
				c1.9-0.1,4.1-0.2,6.5,0.1c0.9,0.1,1.6,0.2,2.3,0.1c0.2,0,0.4,0,0.6,0c-1.4-2.2-3.8-2.2-7.3-2c-2.5,0.2-4.9,0.3-6.5-1.2
				c-2.4-2.4-5.5-2.4-8.4-2.4c-3.1,0-6.4,0-7.9-3.3c-0.5-1.1-0.6-2.1-0.2-3c0.8-1.8,3.4-2.4,6.2-3.1c2.1-0.5,4.2-1,5.5-1.9
				c0.3-0.3,0.5-0.7,0.6-1.1c-1.2-0.6-2.3-1.5-3.4-2.5c-0.4-0.4-0.8-0.7-1.2-1.1c-0.4-0.4-0.7-0.7-1.1-1c-0.6-0.6-0.9-1.4-1.1-2
				c-0.1-0.3-0.2-0.6-0.3-0.8L44,38.8c0,0,0,0,0-0.1l-0.5,1.1l-0.5-3c0-0.1,0-0.3,0-0.4c-0.2-0.1-0.5-0.2-0.7-0.4
				c-0.2-0.1-0.4-0.3-0.6-0.5c-0.1-0.1-0.2-0.2-0.3-0.3c-0.2-0.1-0.6-0.3-0.8-0.8c0-0.1-0.1-0.1-0.1-0.2l0,0
				c-0.2-0.1-0.4-0.3-0.5-0.5c0,0-0.1,0-0.1,0l-0.2-0.1c-0.6-0.2-1-0.7-1.2-1c-0.3-0.3-0.5-0.5-0.8-0.7c-0.2-0.1-0.5-0.3-0.7-0.5
				c-0.1-0.1-0.2-0.1-0.2-0.2c-0.3,0.2-0.5,0.2-0.7,0.2h-0.3l-0.2-0.1c0,0-0.1,0-0.1,0.1c0,0,0,0,0,0.1c-0.1,0.1-0.4,0.3-0.6,0.3
				C34.1,32,33.9,32,33.6,32c-0.1,0-0.2,0-0.3,0c-0.1,0-0.3,0.2-0.4,0.3c-0.1,0.1-0.3,0.3-0.4,0.4l-0.7,0.6L31.6,33
				c-0.2,0.2-0.5,0.4-0.8,0.5c-0.1,0.1-0.2,0.2-0.3,0.3c-0.1,0-0.1,0.1-0.2,0.1l-0.1,0.1c-0.1,0.1-0.2,0.2-0.3,0.4l-0.1,0.1
				c-0.2,0.4-0.5,0.6-0.7,0.8c-0.1,0.1-0.1,0.1-0.2,0.2c-0.7,0.6-1.3,1.2-2,1.7l-3.6,3.2C21.2,42.1,19.3,43.6,17.1,44.6z M35.1,31.2
				C35.1,31.3,35.1,31.3,35.1,31.2L35.1,31.2z M35.8,31C35.9,31,35.9,31,35.8,31L35.8,31L35.8,31z M36.4,29.8L36.4,29.8L36.4,29.8
				C36.5,29.8,36.4,29.8,36.4,29.8z M37.2,29.5L37.2,29.5C37.2,29.5,37.2,29.5,37.2,29.5z"/>
		</g>
		<g>
			<path class="st2" d="M79.6,45.1c-1.5,0.2-3.1,0.3-4.6,0.8c-0.7,0.2-1.3,0.6-1.9,1c-0.3,0.2-0.5,0.3-0.8,0.4
				c-0.3,0.1-0.6,0.1-1,0.2c-0.4,0.1-0.8,0.6-1.2,0.6c-0.2,0-0.3-0.1-0.6-0.1s-0.3,0-0.6,0c-0.5-0.1-0.6-0.8-1-1
				c-0.3-0.2-0.8-0.1-1.2-0.1c-0.3,0-0.6-0.1-0.9-0.3c-0.8-0.3-1.5-0.6-2.3-1c-0.5-0.2-1-0.4-1.5-0.3c-0.1,0-0.3,0.1-0.5,0.1
				c-0.3,0-0.4-0.2-0.6-0.3c-0.2-0.1-0.6-0.2-0.7,0c-0.1-0.1-0.3-0.3-0.4-0.4c-0.1,0.1-0.3,0.3-0.4,0.4c-0.1-0.3-0.6-0.6-1-0.6
				c-0.1,0.3-0.3,0.5-0.6,0.6c0,0.3-0.1,0.6-0.3,0.8c-0.1,0.1-0.2,0.3-0.1,0.3c-0.6,0.1-1.1,0.3-1.7,0.4c-0.6,0.1-1.3-0.1-1.9-0.2
				c-0.6,2.9-4.6,3.9-6.8,5.6c-0.5,1,1,1.9,1.9,2.4c5.3,0,9.8,0.5,14.6,2.4c3.4,1,7.8-1.9,10.8,0.5c1.5,1.1,2,2.7,2.2,4.4
				c1.7-1.7,2.8-4.1,2.8-6.9c0-2.7,0-5.4,0-8.1C79.6,46.3,79.6,45.7,79.6,45.1z"/>
			<path class="st2" d="M75.9,64l-0.2-2c-0.2-1.8-0.8-3-1.8-3.8c-1.4-1.1-3.2-0.8-5.3-0.4c-1.7,0.3-3.5,0.6-5.1,0.1l-0.1,0
				c-4.9-2-9.2-2.4-14.3-2.4h-0.2l-0.2-0.1c-3.1-1.5-2.7-3.2-2.4-3.8l0.1-0.2l0.2-0.1c0.8-0.6,1.7-1.1,2.6-1.6
				c1.8-1,3.5-1.9,3.8-3.4l0.2-1l1,0.3c0.5,0.1,1.1,0.3,1.4,0.2l1-0.3c0.1-0.1,0.1-0.2,0.2-0.3v-0.6l0.6-0.3c0.1,0,0.1-0.1,0.2-0.2
				l0.2-0.5l0.5-0.1c0.4-0.1,0.8,0,1.1,0.2l0.4-0.4l0.7,0.7c0.3,0,0.7,0.1,1,0.3c0.1,0,0.1,0.1,0.2,0.1c0.1,0,0.1,0,0.2,0
				c0.8-0.2,1.5,0.1,2,0.3c0.4,0.2,0.8,0.3,1.1,0.5c0.4,0.2,0.8,0.3,1.2,0.5c0.4,0.2,0.5,0.2,0.5,0.2c0.1,0,0.2,0,0.3,0
				c0.4,0,1-0.1,1.5,0.2c0.4,0.2,0.6,0.6,0.8,0.8c0,0,0,0,0,0h0.2c0.2,0,0.4,0.1,0.6,0.1c0,0,0.1-0.1,0.1-0.1
				c0.2-0.1,0.4-0.3,0.7-0.4c0.3-0.1,0.6-0.2,0.8-0.2c0.1,0,0.2,0,0.3,0c0.1,0,0.2-0.1,0.4-0.2c0.9-0.6,1.5-0.9,2.3-1.1
				c1.3-0.4,2.6-0.6,3.9-0.8l1.8-0.2l0.1,1c0.1,0.8,0.1,1.4-0.1,2v8c0,3-1.1,5.6-3.1,7.6L75.9,64z M71.3,55.4c1.3,0,2.6,0.3,3.7,1.2
				c1,0.7,1.7,1.7,2.1,3c0.9-1.4,1.3-3,1.3-4.7l0-8.4c0-0.1,0-0.2,0.1-0.3c-1.1,0.1-2.3,0.3-3.3,0.6c-0.5,0.2-1.1,0.4-1.7,0.9
				c-0.3,0.2-0.6,0.5-1.2,0.6c-0.1,0-0.2,0-0.4,0.1c-0.2,0-0.3,0-0.4,0.1c-0.1,0-0.2,0.1-0.3,0.2c-0.3,0.2-0.7,0.5-1.2,0.5
				c-0.3,0-0.5-0.1-0.6-0.1l-0.6,0c-0.7-0.1-1.1-0.7-1.3-1c0,0,0-0.1-0.1-0.1c-0.1,0-0.2,0-0.3,0c-0.6,0.1-1.1,0-1.8-0.4
				c-0.3-0.2-0.7-0.3-1.1-0.5c-0.4-0.2-0.8-0.3-1.2-0.5c-0.3-0.1-0.6-0.3-0.8-0.2l-0.3,0c-0.1,0-0.3,0.1-0.5,0.1
				c-0.4,0-0.6-0.1-0.8-0.3l-0.3,0.5l-0.6-0.6l-0.2,0.2l0.6,0.3L56,47.6c-0.5,0.1-1,0.1-1.4,0c-0.8,1.8-2.8,2.9-4.5,3.8
				c-0.7,0.4-1.4,0.8-2,1.2c0.1,0.2,0.5,0.5,1.2,0.9c4.5,0,9.3,0.3,14.7,2.5c1.2,0.3,2.6,0.1,4.2-0.2C69.2,55.6,70.3,55.4,71.3,55.4
				z M67.4,47.8L67.4,47.8L67.4,47.8z"/>
		</g>
		<circle class="st2" cx="63.4" cy="33.6" r="4.4"/>
		<g>
			<path class="st0" d="M74.6,57.5c-2.9-2.4-7.4,0.5-10.8-0.5c-4.9-1.9-9.3-2.4-14.6-2.4c-1-0.5-2.4-1.5-1.9-2.4
				c2.2-1.7,7.1-3.6,7.7-6.5c-0.3-0.1-0.7-0.2-1-0.3c-0.3-0.1-1.4-0.2-1.7-0.3c-0.1,0.8-0.3,2.5-1,3.3c-3.9,2.9-13.7,1.9-11.2,6.8
				c2.4,5.3,10.8,0,16.1,5.3c2.9,2.9,11.2-1.9,14.2,3.9c0.1,0.3,0.3,0.6,0.3,0.9c2.4-0.5,4.6-1.6,6.2-3.3
				C76.7,60.2,76.1,58.6,74.6,57.5z"/>
			<path class="st0" d="M69.8,66.4l-0.2-0.9c0-0.2-0.2-0.5-0.3-0.7c-1.3-2.6-3.8-2.6-7.5-2.4c-2.5,0.2-4.9,0.3-6.5-1.2
				c-2.4-2.4-5.5-2.4-8.4-2.4c-3.1,0-6.4,0-7.9-3.3c-0.5-1.1-0.6-2.1-0.2-3c0.8-1.8,3.4-2.4,6.2-3.1c2.1-0.5,4.2-1,5.5-1.9
				c0.2-0.2,0.6-0.8,0.7-2.6l0.1-1.5l1.3,0.7c0.1,0,0.3,0,0.5,0.1c0.5,0.1,0.9,0.1,1.1,0.3c0.2,0.1,0.5,0.2,0.8,0.3l1,0.2l-0.2,1
				c-0.5,2.5-3.2,4.1-5.7,5.6c-0.8,0.4-1.5,0.9-2,1.3c0.1,0.2,0.5,0.5,1.2,0.9c4.5,0,9.3,0.3,14.7,2.5c1.2,0.3,2.6,0.1,4.2-0.2
				c2.3-0.4,4.8-0.8,6.9,0.8c1.5,1.2,2.3,2.8,2.5,5.1l0,0.5l-0.3,0.3c-1.7,1.7-4.1,3-6.8,3.5L69.8,66.4z M64.1,60.2
				c2.7,0,5.5,0.6,7,3.6c0,0.1,0.1,0.1,0.1,0.2c1.7-0.5,3.3-1.3,4.6-2.5C75.5,60.1,75,59,74,58.3l0,0c-1.3-1.1-3.2-0.8-5.3-0.4
				c-1.7,0.3-3.5,0.6-5.1,0.1l-0.1,0c-4.9-2-9.2-2.4-14.3-2.4H49l-0.2-0.1c-3.1-1.5-2.7-3.2-2.4-3.8l0.1-0.2l0.2-0.1
				c0.2-0.1,0.3-0.3,0.5-0.4c-0.6,0.1-1.2,0.3-1.7,0.4c-2.1,0.5-4.4,1-4.8,2c-0.1,0.3-0.1,0.7,0.2,1.3c0.9,2,2.8,2.1,6.1,2.1
				c3.1,0,6.9,0,9.9,3c0.9,0.9,2.9,0.8,4.9,0.6C62.5,60.3,63.3,60.2,64.1,60.2z M53.1,46.2c-0.1,0.4-0.2,0.8-0.3,1.1
				c0.3-0.3,0.6-0.6,0.8-1c0,0-0.1,0-0.1,0C53.4,46.2,53.3,46.2,53.1,46.2z"/>
		</g>
	</g>
</g>
</svg>
